<?xml version="1.0" standalone="no"?>
<!DOCTYPE svg PUBLIC "-//W3C//DTD SVG 20010904//EN"
 "http://www.w3.org/TR/2001/REC-SVG-20010904/DTD/svg10.dtd">
<svg version="1.0" xmlns="http://www.w3.org/2000/svg"
 width="1591.000000pt" height="1591.000000pt" viewBox="0 0 1591.000000 1591.000000"
 preserveAspectRatio="xMidYMid meet">
<metadata>
Created by potrace 1.14, written by Peter Selinger 2001-2017
</metadata>
<g transform="translate(0.000000,1591.000000) scale(0.100000,-0.100000)"
fill="#000000" stroke="none">
<path d="M8079 12953 c-392 -328 -711 -826 -765 -1193 -3 -25 -10 -70 -14
-100 -13 -91 -9 -218 10 -345 16 -105 73 -465 85 -535 2 -14 6 -41 9 -60 3
-19 7 -44 10 -55 2 -11 6 -41 10 -66 4 -25 9 -57 11 -70 10 -58 56 -347 61
-379 3 -19 10 -62 15 -95 6 -33 13 -76 15 -95 2 -19 6 -46 9 -60 3 -14 8 -43
11 -65 3 -22 16 -107 29 -190 24 -152 31 -198 40 -270 l5 -40 -20 40 c-11 22
-47 98 -80 169 -171 364 -408 699 -558 790 -102 61 -187 81 -342 80 -115 -1
-148 -5 -225 -28 -413 -123 -675 -430 -660 -775 15 -343 251 -677 640 -906 98
-58 177 -97 183 -90 2 2 -5 16 -16 32 -74 105 -134 269 -135 368 -1 147 87
220 281 229 312 16 534 -146 622 -454 12 -44 21 -101 21 -138 -1 -56 -5 -66
-29 -88 -18 -17 -23 -27 -15 -30 9 -4 8 -12 -5 -32 -32 -48 -23 -246 15 -342
22 -56 -47 -243 -132 -359 -175 -237 -423 -293 -680 -152 -82 45 -168 108
-240 174 -33 31 -63 56 -66 57 -4 0 -14 -19 -24 -42 -25 -64 -97 -168 -161
-231 -139 -141 -302 -201 -474 -175 -132 20 -315 141 -417 275 -25 33 -27 42
-24 118 3 100 -11 140 -68 185 -47 38 -51 62 -26 147 17 57 70 118 124 140 52
22 159 20 207 -3 93 -46 103 -140 37 -357 -4 -14 14 -6 73 29 114 68 140 95
207 215 159 288 115 678 -99 892 -73 72 -141 102 -242 104 -125 3 -241 -45
-399 -163 -39 -30 -73 -54 -75 -54 -2 0 -4 66 -4 148 -1 139 -11 435 -19 532
-2 25 -6 83 -10 130 -3 47 -8 96 -10 110 -2 14 -7 57 -10 95 -22 243 -149 515
-332 705 -99 104 -305 270 -334 270 -5 0 -24 -30 -43 -67 -73 -147 -130 -349
-152 -545 -3 -29 -7 -64 -10 -78 -11 -66 -4 -345 11 -441 44 -278 136 -551
286 -851 l60 -122 -45 37 c-25 21 -80 54 -122 74 -141 67 -252 48 -359 -62
-95 -97 -146 -252 -139 -418 2 -45 5 -91 8 -103 49 -232 143 -398 271 -476 49
-31 126 -56 184 -61 l44 -4 -37 34 c-51 49 -70 89 -70 153 0 65 24 113 66 131
61 25 172 -5 283 -76 70 -45 104 -82 134 -145 23 -48 26 -67 25 -155 0 -81 -5
-114 -27 -174 -55 -155 -173 -309 -300 -392 -88 -57 -146 -74 -257 -74 -90 0
-99 2 -173 39 -87 43 -182 128 -239 214 l-36 53 -17 -77 c-45 -202 -153 -355
-278 -394 -161 -51 -337 27 -552 245 -132 133 -173 190 -180 250 -23 187 -62
271 -143 307 l-44 20 6 76 c4 43 9 93 11 112 3 19 7 55 10 80 36 277 128 490
235 545 95 49 254 -7 321 -113 41 -64 52 -112 51 -217 0 -64 -7 -114 -25 -172
-13 -46 -21 -83 -17 -83 15 0 87 59 136 111 94 101 192 265 262 444 79 199
104 315 104 480 1 326 -147 599 -389 715 -81 39 -159 57 -264 59 -153 3 -276
-25 -379 -88 -235 -142 -380 -447 -426 -891 -10 -99 -12 -118 -13 -210 l-2
-85 -19 35 c-28 51 -68 179 -86 278 -12 65 -17 166 -19 404 -3 341 -7 414 -31
578 -51 340 -189 736 -341 973 -211 330 -631 671 -1101 895 -63 29 -116 52
-118 50 -2 -3 21 -76 52 -164 72 -203 149 -430 396 -1159 210 -619 253 -745
286 -835 11 -30 64 -179 117 -330 104 -294 428 -1167 444 -1197 6 -10 19 -43
30 -73 11 -30 54 -145 95 -255 70 -184 75 -202 65 -234 -14 -41 -7 -140 14
-199 31 -90 104 -164 171 -176 16 -3 29 -6 31 -8 1 -2 17 -39 34 -83 18 -44
39 -93 46 -110 79 -177 158 -462 134 -478 -2 -2 -23 -15 -46 -30 -83 -53 -124
-137 -118 -243 6 -123 65 -248 135 -286 27 -15 49 -18 95 -15 33 2 68 7 77 11
13 6 19 2 23 -16 5 -18 -2 -32 -27 -59 -48 -51 -95 -144 -107 -214 -52 -285
191 -599 479 -619 50 -3 54 -6 71 -41 19 -38 17 -55 -5 -55 -6 0 -33 -13 -59
-30 -116 -73 -204 -311 -175 -470 45 -244 365 -472 979 -696 465 -169 1274
-331 2314 -464 280 -35 502 -62 640 -75 28 -3 115 -12 195 -20 80 -8 204 -19
275 -25 72 -6 153 -12 180 -15 85 -8 166 -14 265 -20 52 -3 118 -8 145 -10 28
-2 109 -7 180 -10 72 -4 150 -8 175 -10 116 -9 545 -19 830 -19 477 0 632 6
1005 40 286 26 884 118 1205 184 795 165 1426 348 2032 589 271 108 509 233
589 311 137 134 204 392 154 594 -9 36 -15 71 -13 77 2 7 37 12 88 13 70 2 95
7 143 30 115 55 211 186 254 346 26 97 24 265 -4 355 -23 72 -82 174 -121 209
-32 28 -28 46 11 46 53 0 129 27 168 59 46 38 96 132 104 197 15 107 -49 219
-165 294 -38 24 -49 37 -45 50 3 10 66 193 139 406 132 385 133 387 168 405
101 52 157 196 108 276 l-20 33 541 1567 c793 2299 829 2406 826 2410 -4 3
-300 -128 -387 -172 -312 -157 -566 -433 -689 -750 -98 -252 -191 -681 -237
-1090 -3 -33 -8 -67 -9 -75 -2 -8 -6 -55 -10 -105 -4 -49 -9 -97 -10 -106 -5
-24 -18 -212 -17 -233 1 -27 -3 -19 -53 83 -158 325 -385 524 -653 571 -158
28 -327 -11 -470 -108 -79 -54 -185 -171 -233 -257 -222 -398 -170 -822 149
-1215 65 -80 189 -207 195 -199 3 2 7 46 10 96 19 282 119 432 288 433 125 0
249 -73 304 -181 62 -119 71 -331 25 -553 l-11 -55 -45 -7 c-50 -7 -97 -36
-128 -77 -28 -38 -35 -156 -12 -193 17 -24 16 -27 -8 -68 -34 -59 -128 -152
-201 -201 -128 -85 -331 -137 -505 -130 -240 10 -404 161 -466 429 l-18 76
-46 -44 c-139 -134 -307 -213 -470 -220 -203 -9 -352 79 -440 258 -22 45 -46
106 -54 136 -12 51 -12 57 5 81 66 94 82 212 44 324 l-23 70 52 51 c61 59 122
84 205 84 138 -1 196 -79 167 -225 -7 -37 -6 -39 8 -20 27 34 -11 -79 -55
-167 -38 -75 -39 -88 -9 -83 8 1 44 5 80 9 152 16 236 60 365 190 217 218 274
436 169 649 -136 276 -440 290 -815 38 l-88 -60 49 102 c93 197 150 337 260
642 152 420 175 538 174 870 0 160 -4 224 -22 321 -34 186 -102 410 -129 421
-26 10 -185 -109 -278 -208 -123 -131 -259 -329 -345 -504 -74 -150 -117 -311
-155 -590 -23 -164 -23 -531 1 -795 l5 -65 -18 30 c-11 17 -22 38 -26 47 -3
10 -30 53 -58 95 -73 109 -163 194 -244 233 -60 29 -75 32 -139 28 -102 -5
-170 -40 -271 -142 -195 -196 -226 -418 -96 -681 39 -80 120 -200 158 -235 3
-3 2 13 -2 35 -4 22 -6 73 -6 114 1 137 55 202 169 203 134 1 265 -75 309
-181 29 -68 21 -212 -12 -224 -10 -4 -12 -1 -7 11 5 15 3 15 -23 -2 -77 -49
-105 -94 -105 -172 0 -70 18 -118 62 -164 l40 -41 -34 -56 c-36 -60 -110 -129
-173 -161 -92 -46 -254 -60 -380 -31 -135 31 -264 128 -319 240 -32 66 -56
150 -56 197 l0 33 -72 -61 c-243 -205 -502 -264 -717 -163 -66 31 -171 132
-222 213 -41 65 -86 163 -109 239 l-17 55 29 80 c47 129 46 213 -3 332 -11 28
-10 38 10 85 57 133 177 321 270 422 186 201 408 199 477 -5 26 -76 23 -243
-6 -366 -12 -51 -20 -96 -17 -99 7 -7 55 22 177 106 171 118 293 268 404 495
110 225 162 418 165 613 6 386 -204 609 -591 630 -329 18 -612 -148 -850 -498
-69 -101 -151 -260 -202 -389 -54 -135 -57 -141 -51 -110 3 14 19 102 35 195
17 94 33 184 36 200 3 17 16 91 29 165 35 200 83 470 90 510 148 836 140 779
139 985 -2 233 -44 416 -149 641 -94 201 -222 379 -410 570 -112 113 -286 264
-305 264 -4 0 -26 -17 -51 -37z"/>
</g>
</svg>
